<svg xmlns="http://www.w3.org/2000/svg" width="200" height="200" class="icon" viewBox="0 0 1024 1024"><path fill="#f7d11e" d="M512.008 792.683c-137.943 0-250.165-153.74-250.165-342.732 0-16.721 2.646-120.788 2.757-125.227l.843-33.365 33.032 4.633a307 307 0 0 0 42.49 2.975c55.576 0 107.147-14.588 141.056-39.458l29.959-28.183 29.623 28.183c33.913 24.884 85.49 39.47 141.052 39.47 14.18 0 28.47-1.003 42.487-2.972l32.911-4.617.967 33.23c.135 4.38 3.135 107.336 3.135 125.333.002 188.99-112.21 342.73-250.147 342.73"/><path fill="#885f44" d="M512.017 810.554c-147.798 0-268.042-161.767-268.042-360.605 0-10.025.89-50.7 2.652-120.89l.942-38.145a17.9 17.9 0 0 1 6.317-13.184c3.875-3.298 8.952-4.772 14.03-4.065l33.032 4.632c64.336 9.057 130.384-4.248 169.645-32.578l29.14-27.413a17.864 17.864 0 0 1 24.57.07l28.774 27.369c31.182 22.484 78.33 35.361 129.58 35.361 13.331 0 26.785-.942 39.995-2.8l32.927-4.616c5.008-.715 10.12.768 14.012 4.04a17.95 17.95 0 0 1 6.334 13.14l.96 33.233c.017.933 3.14 106.79 3.14 125.846 0 198.838-120.227 360.605-268.008 360.605M282.8 311.835l-.453 18.113c-2.182 87.055-2.635 113.308-2.635 120 0 179.13 104.209 324.869 232.306 324.869 128.08 0 232.271-145.74 232.271-324.868 0-17.642-2.966-119.495-3.123-124.765l-.4-13.331-13.14 1.84a323 323 0 0 1-44.967 3.15c-59.172 0-114.434-15.652-151.62-42.935a18 18 0 0 1-1.744-1.457l-17.382-16.532-17.642 16.603q-.811.746-1.675 1.387c-46.59 34.176-122.793 50.159-196.605 39.776z"/><path fill="#43607d" d="M511.878 309.224v.12c.045-.034.093-.07.138-.12z"/><path fill="#43607d" d="M511.878 309.224v.12c.045-.034.093-.07.138-.12zm-.201.009q.06.06.128.111v-.111z"/><path fill="#43607d" d="M511.677 309.233q.06.06.128.111v-.111z"/><path fill="#885f44" d="M512 958.709C265.682 958.709 65.291 758.318 65.291 512S265.681 65.29 512 65.29 958.709 265.681 958.709 512 758.318 958.709 512 958.709m0-857.682c-226.617 0-410.973 184.364-410.973 410.973S285.382 922.973 512 922.973 922.973 738.61 922.973 512 738.617 101.027 512 101.027"/><path fill="#ff713c" d="M646.012 529.868H377.987c-9.877 0-17.868-8-17.868-17.868s7.992-17.868 17.868-17.868h268.025c9.877 0 17.868 8 17.868 17.868s-7.99 17.868-17.868 17.868"/><path fill="#ff713c" d="M512 663.881c-9.877 0-17.868-8-17.868-17.868V377.987c0-9.868 7.992-17.868 17.868-17.868 9.877 0 17.868 8 17.868 17.868v268.025c0 9.868-7.992 17.87-17.868 17.87"/></svg>