<svg xmlns="http://www.w3.org/2000/svg" width="200" height="200" class="icon" viewBox="0 0 1024 1024"><path fill="#ffea00" d="M108.544 108.544h808.96v808.96h-808.96z"/><path d="M942.08 0H81.92C36.864 0 0 36.864 0 81.92v860.16C0 987.136 36.864 1024 81.92 1024h860.16c45.056 0 81.92-36.864 81.92-81.92V81.92C1024 36.864 987.136 0 942.08 0m20.48 921.6c0 22.528-18.432 40.96-40.96 40.96H102.4c-22.528 0-40.96-18.432-40.96-40.96V102.4c0-22.528 18.432-40.96 40.96-40.96h819.2c22.528 0 40.96 18.432 40.96 40.96z"/><path d="M608.256 507.904v-4.096c43.008-14.336 67.584-57.344 67.584-102.4 0-86.016-69.632-116.736-167.936-116.736H362.496V757.76h157.696c104.448 0 180.224-45.056 180.224-139.264 2.048-63.488-36.864-100.352-92.16-110.592m-169.984-163.84h65.536c67.584 0 100.352 18.432 100.352 67.584 0 45.056-30.72 71.68-102.4 71.68h-63.488zM512 700.416h-75.776V540.672H512c75.776 0 116.736 22.528 116.736 75.776 0 57.344-43.008 83.968-116.736 83.968"/></svg>