<svg xmlns="http://www.w3.org/2000/svg" width="200" height="200" class="icon" viewBox="0 0 1024 1024"><path fill="#5cb190" d="M455.68 209.92c2.56 5.12 2.56 10.24 2.56 15.36l-2.56 181.76-2.56 92.16c0 10.24 0 17.92 2.56 28.16 5.12 17.92 20.48 30.72 40.96 30.72l281.6 5.12c12.8 0 23.04 7.68 30.72 15.36s10.24 17.92 10.24 28.16v5.12c-25.6 166.4-156.16 296.96-317.44 320S179.2 862.72 112.64 709.12c-20.48-43.52-30.72-92.16-30.72-140.8V524.8c15.36-179.2 151.04-325.12 325.12-348.16 23.04 0 40.96 12.8 48.64 33.28"/><path fill="#5cb190" d="M453.12 960c-153.6 0-299.52-92.16-363.52-238.08-20.48-48.64-30.72-99.84-33.28-151.04V524.8c15.36-192 161.28-348.16 348.16-373.76 33.28-2.56 64 17.92 74.24 48.64 2.56 7.68 5.12 15.36 5.12 23.04l-5.12 276.48c0 7.68 0 15.36 2.56 23.04 2.56 5.12 7.68 10.24 15.36 10.24l281.6 5.12c20.48 0 38.4 10.24 51.2 25.6 10.24 12.8 15.36 28.16 17.92 43.52v12.8C821.76 796.16 680.96 936.96 506.88 960c-17.92-2.56-35.84 0-53.76 0m-40.96-757.76s-2.56 0 0 0c-163.84 23.04-289.28 158.72-304.64 325.12-2.56 12.8-2.56 25.6 0 40.96 0 46.08 10.24 92.16 28.16 133.12 61.44 140.8 212.48 225.28 363.52 204.8s271.36-143.36 296.96-296.96v-5.12c0-2.56-2.56-7.68-5.12-10.24-2.56-5.12-7.68-7.68-12.8-7.68l-281.6-5.12c-30.72 0-56.32-20.48-64-48.64-2.56-12.8-5.12-25.6-2.56-38.4l5.12-273.92s0-2.56-2.56-5.12c-5.12-7.68-12.8-12.8-20.48-12.8"/><path fill="#5cb190" d="M581.12 89.6c194.56 20.48 348.16 171.52 363.52 360.96v10.24c0 7.68-5.12 12.8-10.24 20.48-5.12 5.12-12.8 7.68-20.48 10.24h-5.12l-330.24-5.12c-10.24 0-20.48-5.12-28.16-12.8-5.12-7.68-10.24-15.36-10.24-23.04l5.12-325.12v-2.56c0-7.68 5.12-17.92 12.8-23.04 5.12-7.68 12.8-10.24 23.04-10.24"/><path fill="#5cb190" d="M908.8 501.76 576 496.64c-12.8 0-28.16-5.12-38.4-15.36-7.68-7.68-12.8-20.48-12.8-30.72l5.12-325.12v-7.68c2.56-12.8 7.68-23.04 17.92-30.72s23.04-10.24 35.84-10.24C783.36 97.28 942.08 253.44 957.44 448v2.56l-2.56 10.24c-2.56 10.24-7.68 20.48-12.8 28.16-7.68 7.68-17.92 12.8-28.16 12.8zM576 471.04l330.24 5.12h2.56c5.12 0 10.24-2.56 12.8-5.12s5.12-7.68 5.12-12.8l2.56-10.24C913.92 266.24 768 122.88 578.56 102.4c-5.12 0-12.8 0-15.36 5.12-5.12 2.56-7.68 7.68-7.68 12.8v2.56L550.4 448q0 7.68 7.68 15.36c2.56 2.56 10.24 5.12 17.92 7.68"/><path fill="#5cb190" d="M908.8 514.56 576 509.44c-17.92 0-35.84-7.68-46.08-20.48C519.68 478.72 512 463.36 512 448l5.12-325.12v-10.24q3.84-23.04 23.04-38.4c12.8-10.24 28.16-12.8 43.52-12.8 207.36 23.04 368.64 184.32 386.56 384v5.12l-2.56 10.24c-2.56 15.36-7.68 25.6-17.92 35.84s-23.04 15.36-35.84 17.92zM576 458.24l332.8 5.12h2.56s2.56 0 5.12-2.56 2.56-2.56 2.56-5.12v-10.24C901.12 273.92 757.76 133.12 578.56 115.2c-2.56 0-5.12 0-7.68 2.56s-2.56 2.56-2.56 5.12L563.2 448s0 2.56 2.56 5.12 5.12 5.12 10.24 5.12"/></svg>