<?xml version="1.0" standalone="no"?><!DOCTYPE svg PUBLIC "-//W3C//DTD SVG 1.1//EN" "http://www.w3.org/Graphics/SVG/1.1/DTD/svg11.dtd"><svg t="1754901869007" class="icon" viewBox="0 0 1024 1024" version="1.1" xmlns="http://www.w3.org/2000/svg" p-id="1551" xmlns:xlink="http://www.w3.org/1999/xlink" width="200" height="200"><path d="M455.68 209.92c2.56 5.12 2.56 10.24 2.56 15.36l-2.56 181.76-2.56 92.16c0 10.24 0 17.92 2.56 28.16 5.12 17.92 20.48 30.72 40.96 30.72l281.6 5.12c12.8 0 23.04 7.68 30.72 15.36 7.68 7.68 10.24 17.92 10.24 28.16v5.12c-25.6 166.4-156.16 296.96-317.44 320S179.2 862.72 112.64 709.12c-20.48-43.52-30.72-92.16-30.72-140.8v-43.52c15.36-179.2 151.04-325.12 325.12-348.16 23.04 0 40.96 12.8 48.64 33.28z" fill="#5CB190" p-id="1552"></path><path d="M453.12 960c-153.6 0-299.52-92.16-363.52-238.08-20.48-48.64-30.72-99.84-33.28-151.04v-46.08C71.68 332.8 217.6 176.64 404.48 151.04c33.28-2.56 64 17.92 74.24 48.64 2.56 7.68 5.12 15.36 5.12 23.04l-5.12 276.48c0 7.68 0 15.36 2.56 23.04 2.56 5.12 7.68 10.24 15.36 10.24l281.6 5.12c20.48 0 38.4 10.24 51.2 25.6 10.24 12.8 15.36 28.16 17.92 43.52v12.8c-25.6 176.64-166.4 317.44-340.48 340.48-17.92-2.56-35.84 0-53.76 0zM412.16 202.24s-2.56 0 0 0c-163.84 23.04-289.28 158.72-304.64 325.12-2.56 12.8-2.56 25.6 0 40.96 0 46.08 10.24 92.16 28.16 133.12 61.44 140.8 212.48 225.28 363.52 204.8 151.04-20.48 271.36-143.36 296.96-296.96v-5.12c0-2.56-2.56-7.68-5.12-10.24-2.56-5.12-7.68-7.68-12.8-7.68l-281.6-5.12c-30.72 0-56.32-20.48-64-48.64-2.56-12.8-5.12-25.6-2.56-38.4L435.2 220.16s0-2.56-2.56-5.12c-5.12-7.68-12.8-12.8-20.48-12.8z" fill="#5CB190" p-id="1553"></path><path d="M581.12 89.6c194.56 20.48 348.16 171.52 363.52 360.96v10.24c0 7.68-5.12 12.8-10.24 20.48-5.12 5.12-12.8 7.68-20.48 10.24h-5.12L578.56 486.4c-10.24 0-20.48-5.12-28.16-12.8-5.12-7.68-10.24-15.36-10.24-23.04l5.12-325.12v-2.56c0-7.68 5.12-17.92 12.8-23.04 5.12-7.68 12.8-10.24 23.04-10.24z" fill="#5CB190" p-id="1554"></path><path d="M908.8 501.76l-332.8-5.12c-12.8 0-28.16-5.12-38.4-15.36-7.68-7.68-12.8-20.48-12.8-30.72l5.12-325.12v-7.68c2.56-12.8 7.68-23.04 17.92-30.72 10.24-7.68 23.04-10.24 35.84-10.24 199.68 20.48 358.4 176.64 373.76 371.2v2.56l-2.56 10.24c-2.56 10.24-7.68 20.48-12.8 28.16-7.68 7.68-17.92 12.8-28.16 12.8h-5.12z m-332.8-30.72l330.24 5.12h2.56c5.12 0 10.24-2.56 12.8-5.12 2.56-2.56 5.12-7.68 5.12-12.8l2.56-10.24C913.92 266.24 768 122.88 578.56 102.4c-5.12 0-12.8 0-15.36 5.12-5.12 2.56-7.68 7.68-7.68 12.8v2.56l-5.12 325.12c0 5.12 2.56 10.24 7.68 15.36 2.56 2.56 10.24 5.12 17.92 7.68z" fill="#5CB190" p-id="1555"></path><path d="M908.8 514.56l-332.8-5.12c-17.92 0-35.84-7.68-46.08-20.48-10.24-10.24-17.92-25.6-17.92-40.96l5.12-325.12v-10.24c2.56-15.36 10.24-28.16 23.04-38.4 12.8-10.24 28.16-12.8 43.52-12.8 207.36 23.04 368.64 184.32 386.56 384v5.12l-2.56 10.24c-2.56 15.36-7.68 25.6-17.92 35.84-10.24 10.24-23.04 15.36-35.84 17.92h-5.12z m-332.8-56.32l332.8 5.12h2.56s2.56 0 5.12-2.56 2.56-2.56 2.56-5.12v-10.24c-17.92-171.52-161.28-312.32-340.48-330.24-2.56 0-5.12 0-7.68 2.56-2.56 2.56-2.56 2.56-2.56 5.12L563.2 448s0 2.56 2.56 5.12 5.12 5.12 10.24 5.12z" fill="#5CB190" p-id="1556"></path></svg>