<svg xmlns="http://www.w3.org/2000/svg" width="200" height="200" class="icon" viewBox="0 0 1024 1024"><path fill="#5cb190" d="M866.987 686.08c0 34.133-17.067 40.96-17.067 40.96S549.547 901.12 529.067 911.36c-20.48 6.827-30.72 0-30.72 0S184.32 727.04 170.667 720.213c-10.24-6.826-10.24-20.48-10.24-20.48v-378.88c0-17.066 20.48-30.72 20.48-30.72l314.026-180.906c20.48-10.24 37.547 0 37.547 0s279.893 160.426 310.613 180.906c30.72 13.654 27.307 44.374 27.307 44.374s-3.413 320.853-3.413 351.573M740.693 324.267c-64.853-37.547-215.04-126.294-215.04-126.294s-13.653-6.826-30.72 0L245.76 341.333s-17.067 10.24-17.067 23.894v296.96s0 10.24 10.24 17.066 256 150.187 256 150.187 10.24 6.827 23.894 0c17.066-10.24 252.586-143.36 252.586-143.36s13.654-6.827 13.654-30.72v-75.093L505.173 747.52v-64.853c0-27.307 20.48-44.374 20.48-44.374l245.76-150.186c10.24-10.24 10.24-23.894 10.24-30.72v-64.854L501.76 559.787V491.52c0-27.307 17.067-37.547 17.067-37.547z"/></svg>