<svg xmlns="http://www.w3.org/2000/svg" width="239.063" height="200" class="icon" viewBox="0 0 1224 1024"><path fill="#2db194" d="M1213.666 830.377c-7.07 79.79-86.402 156.013-170.395 165.707q-430.928 46.29-861.863 7.24c-83.974-8.192-163.578-84.642-170.87-166.186-18.272-218.441-7.97-436.826 30.89-655.149 15.437-81.544 96.05-157.238 173.133-164.797 265.19-24.03 530.376-21.808 795.566 6.679 77.093 8.943 157.444 84.441 172.65 164.329 38.294 214.119 48.596 428.176 30.89 642.177"/><path fill="#fff" d="M1012.726 22.657C949.336 113.54 840.93 219.172 726.67 330.49c-36.921 35.968-74.722 72.796-111.529 109.701-32.5-31.955-65.778-63.961-98.314-95.257-117.843-113.34-239.395-230.272-306.46-328.807C169.923 21.37 128.87 44.989 97.055 78.07c73.44 112.213 198.501 232.53 330.597 359.584 47.624 45.807 96.874 93.173 142.259 139.032a64.32 64.32 0 0 0 45.715 19.075h.365a64.34 64.34 0 0 0 45.859-19.6c49.28-50.932 102.811-103.095 154.583-153.528 123.209-120.04 239.924-233.77 309.875-338.203-31.965-32.742-73.11-56.3-113.581-61.774m49.867 787.795c0 34.101-27.648 61.749-61.749 61.749h-56.603c-34.1 0-61.749-27.648-61.749-61.749v-30.874c0-34.1 27.648-61.749 61.75-61.749h56.602c34.101 0 61.749 27.648 61.749 61.749z"/></svg>