<svg xmlns="http://www.w3.org/2000/svg" width="200" height="200" class="icon" viewBox="0 0 1024 1024"><path fill="#200e32" d="M687.36 260.352c134.101-.939 245.376 99.627 251.093 230.997.214 5.291.256 10.582.128 15.83v183.765a239.45 239.45 0 0 1-66.986 171.733 239.8 239.8 0 0 1-185.131 74.326 9758 9758 0 0 1-176.725 1.536c-58.454 0-116.736-.47-173.952-1.494-131.627 6.528-244.395-97.792-250.24-230.912a279 279 0 0 1-.171-15.786V506.453c-2.901-132.608 103.168-243.37 236.373-246.272 5.206-.085 10.496 0 15.83.214l168.96-.043v-9.813a53.59 53.59 0 0 0-53.59-52.438h-42.496c-22.058-.938-43.05-8.234-59.008-23.936a83.03 83.03 0 0 1-25.045-58.752 29.78 29.78 0 0 1 29.44-30.08h.341c16.256 0 29.568 13.142 29.739 29.483a23.47 23.47 0 0 0 7.253 16.853 23.72 23.72 0 0 0 16.683 6.87h43.35A113.365 113.365 0 0 1 566.1 250.197v39.894a29.78 29.78 0 0 1-29.781 29.781H334.677a182.315 182.315 0 0 0-189.781 185.941v185.131a181.845 181.845 0 0 0 190.08 186.624c115.968 1.963 233.856 1.963 352.256-.043a180.74 180.74 0 0 0 141.355-56.021 180.65 180.65 0 0 0 50.474-129.92v-185.13a151 151 0 0 0-.128-12.587c-4.394-100.566-86.4-176.086-190.805-173.995a29.525 29.525 0 0 1-30.123-29.355 29.78 29.78 0 0 1 29.355-30.165m-267.264 410.88a32.77 32.77 0 0 1-32.512 32.256h-.384a32.384 32.384 0 0 1-32.085-32.256V628.48H312.02a32.56 32.56 0 0 1-31.018-14.933 32.04 32.04 0 0 1 0-34.262 32.56 32.56 0 0 1 31.018-14.933h43.094v-42.41c0-17.835 14.506-32.257 32.469-32.257 17.92 0 32.512 14.422 32.512 32.256v42.368h43.093a32.56 32.56 0 0 1 31.019 14.934 32.09 32.09 0 0 1 0 34.261 32.6 32.6 0 0 1-31.061 14.933h-43.094v42.795zm197.59-166.187a29.1 29.1 0 0 1 10.24-7.125 32 32 0 0 1 24.149 0 37.4 37.4 0 0 1 10.965 7.125 32.13 32.13 0 0 1 7.168 34.902 26.3 26.3 0 0 1-7.168 10.496 33.067 33.067 0 0 1-45.355 0 31.02 31.02 0 0 1 0-45.398m72.191 142.934a31.7 31.7 0 0 0 .171 44.97c12.544 12.374 32.81 12.374 45.355 0a31.7 31.7 0 0 0-10.411-52.096 32.68 32.68 0 0 0-35.115 7.126"/></svg>