<svg xmlns="http://www.w3.org/2000/svg" width="200" height="200" class="icon" viewBox="0 0 1024 1024"><path fill="#e64a19" d="M110.933 451.84 357.547 204.8l72.106 72.533c-10.24 36.267 6.4 75.947 39.68 95.147v236.373c-25.6 14.507-42.666 42.24-42.666 73.814A85.333 85.333 0 0 0 512 768a85.333 85.333 0 0 0 85.333-85.333c0-31.574-17.066-59.307-42.666-73.814v-207.36l88.32 89.174C640 497.067 640 504.32 640 512a85.333 85.333 0 0 0 85.333 85.333A85.333 85.333 0 0 0 810.667 512a85.333 85.333 0 0 0-85.334-85.333c-7.68 0-14.933 0-21.333 2.986L594.347 320a84.48 84.48 0 0 0-49.067-99.84c-18.347-6.827-37.547-8.533-54.613-3.84l-72.534-72.107 33.707-33.28c33.28-33.706 87.04-33.706 120.32 0L913.067 451.84c33.706 33.28 33.706 87.04 0 120.32L572.16 913.067c-33.28 33.706-87.04 33.706-120.32 0L110.933 572.16c-33.706-33.28-33.706-87.04 0-120.32"/></svg>