<svg xmlns="http://www.w3.org/2000/svg" width="200" height="200" class="icon" viewBox="0 0 1024 1024"><path fill="#fc490b" d="m89.088 59.392 62.464 803.84c1.024 12.288 9.216 22.528 20.48 25.6L502.784 993.28q9.216 3.072 18.432 0l330.752-104.448c11.264-4.096 19.456-14.336 20.48-25.6l62.464-803.84c1.024-17.408-12.288-31.744-29.696-31.744H118.784c-17.408 0-31.744 14.336-29.696 31.744"/><path fill="#fff" d="M774.144 309.248h-409.6l12.288 113.664h388.096l-25.6 325.632L512 820.224l-227.328-71.68L271.36 578.56h118.784v82.944l124.928 33.792 123.904-33.792 10.24-132.096H267.264l-25.6-324.608h540.672z"/></svg>