<svg xmlns="http://www.w3.org/2000/svg" width="200" height="200" class="icon" viewBox="0 0 1024 1024"><path fill="#4ab192" d="M970.971 650.971c-14.628-34.742-32.914-65.828-56.685-91.428-10.972-12.8-38.4-36.572-65.829-58.514-7.314-5.486-14.628-10.972-21.943-18.286-16.457-18.286-29.257-47.543-27.428-96.914L718.629 384c0 36.571-1.829 74.971-1.829 111.543l-230.4-1.829L484.571 384l-84.114 1.829-9.143 3.657c7.315 34.743 3.657 73.143-10.971 104.228-12.8 27.429-29.257 36.572-51.2 56.686-3.657 3.657-84.114 80.457-102.4 177.371-14.629 78.629 18.286 118.858-7.314 144.458C195.657 896 140.8 894.17 118.857 855.77c-5.486-9.142-9.143-20.114-9.143-32.914 34.743 7.314 73.143-5.486 87.772-29.257 10.971-18.286 12.8-45.714 0-58.514-20.115-20.115-78.629-5.486-102.4 38.4-1.829 3.657-3.657 9.143-5.486 12.8C64 768 51.2 735.086 58.514 702.17c9.143 7.315 20.115 10.972 31.086 14.629 38.4 9.143 85.943-7.314 98.743-43.886 5.486-14.628 3.657-29.257-1.829-42.057-16.457-29.257-73.143-27.428-107.885-1.828-10.972 7.314-18.286 16.457-25.6 29.257-1.829-3.657-3.658-9.143-5.486-12.8-18.286-51.2 29.257-100.572 54.857-113.372 10.971-7.314 23.771-9.143 36.571-5.485 5.486 3.657 10.972 7.314 16.458 12.8 9.142 9.142 31.085 14.628 82.285-9.143 21.943-7.315 43.886-18.286 64-31.086 16.457-10.971 25.6-16.457 27.429-21.943 9.143-16.457 0-38.4-10.972-60.343L93.257 504.686C78.63 515.657 58.514 522.97 40.23 550.4c-3.66 5.486-36.573 58.514-14.63 111.543 3.657 9.143 9.143 16.457 14.629 23.771-12.8 32.915-9.143 71.315 9.142 100.572 9.143 12.8 21.943 23.771 36.572 29.257 0 38.4 18.286 71.314 49.371 89.6s67.657 14.628 95.086-5.486c1.829 29.257 1.829 56.686 3.657 85.943h58.514l14.629 18.286h120.686l18.285-21.943H821.03c5.485 7.314 10.971 14.628 14.628 20.114H936.23c3.657-7.314 5.485-16.457 9.142-23.771h49.372c23.771-137.143 9.143-257.829-23.772-327.315M128 771.657c16.457-18.286 43.886-25.6 53.029-16.457 7.314 7.314 1.828 31.086-10.972 40.229-10.971 10.971-34.743 12.8-56.686 3.657 1.829-9.143 7.315-20.115 14.629-27.429M102.4 641.83c25.6-12.8 64-9.143 69.486 9.142 3.657 12.8-9.143 32.915-23.772 40.229C128 704 93.257 698.514 69.486 676.571 76.8 661.943 87.77 649.143 102.4 641.83m515.657 252.34c-56.686 0-106.057-36.571-128-95.085-21.943-56.686-9.143-122.515 29.257-166.4C559.543 588.8 618.057 576 671.086 599.77c51.2 23.772 85.943 78.629 85.943 140.8 0 40.229-14.629 78.629-40.229 107.886-25.6 31.086-62.171 45.714-98.743 45.714M793.6 256c7.314 5.486 14.629 10.971 23.771 12.8 29.258 12.8 89.6-3.657 155.429-45.714q5.485-30.172 0-60.343l-195.657 76.8c3.657 5.486 10.971 12.8 16.457 16.457M107.886 479.086l202.971-78.629c-10.971-21.943-20.114-45.714-12.8-65.828 3.657-10.972 10.972-20.115 91.429-54.858 65.828-27.428 120.685-47.542 153.6-60.342 23.771-9.143 62.171-21.943 107.885-40.229 10.972-5.486 21.943-10.971 34.743-12.8 16.457-3.657 23.772-7.314 31.086-5.486 20.114 5.486 34.743 29.257 42.057 45.715 1.829 5.485 5.486 10.971 7.314 14.628l201.143-78.628c0-1.829-1.828-5.486-1.828-7.315C938.057 58.514 857.6 32.914 832 25.6c-40.229-12.8-89.6-16.457-181.029 7.314-100.571 25.6-124.342 53.029-261.485 115.2-129.829 60.343-248.686 102.4-288.915 177.372C87.771 345.6 82.286 371.2 82.286 396.8c1.828 42.057 27.428 56.686 25.6 82.286m0 0"/></svg>