<?xml version="1.0" standalone="no"?><!DOCTYPE svg PUBLIC "-//W3C//DTD SVG 1.1//EN" "http://www.w3.org/Graphics/SVG/1.1/DTD/svg11.dtd"><svg class="icon" width="200px" height="200.00px" viewBox="0 0 1024 1024" version="1.1" xmlns="http://www.w3.org/2000/svg"><path d="M975.698113 134.086038v540.015094h-927.396226V134.086038c0-46.563019 37.868679-84.431698 84.431698-84.431698h758.53283c46.563019 0 84.431698 37.868679 84.431698 84.431698z" fill="#A2A2F9" /><path d="M86.035321 538.546717a14.490566 14.490566 0 0 1-14.490566-14.490566v-144.094189a14.490566 14.490566 0 0 1 28.981132 0v144.094189a14.490566 14.490566 0 0 1-14.490566 14.490566zM86.035321 333.031849a14.490566 14.490566 0 0 1-14.490566-14.490566v-9.73766a14.490566 14.490566 0 0 1 28.981132 0v9.73766a14.490566 14.490566 0 0 1-14.490566 14.490566zM545.386264 101.87834h-7.998792a14.490566 14.490566 0 0 1 0-28.981132h7.998792a14.490566 14.490566 0 0 1 0 28.981132zM763.594868 101.87834h-157.386868a14.490566 14.490566 0 0 1 0-28.981132h157.386868a14.490566 14.490566 0 0 1 0 28.981132z" fill="#FFFFFF" opacity=".3" /><path d="M975.698113 134.086038v540.015094h-927.396226v-35.936604h832.280151a52.030792 52.030792 0 0 0 52.030792-52.030792V98.149434c0-15.649811-4.250566-30.526792-11.978868-43.085283 32.072453 11.78566 55.064151 42.698868 55.064151 79.021887z" fill="#7979F7" /><path d="M48.301887 674.101132v70.675321a84.48966 84.48966 0 0 0 84.48966 84.470339h758.397585a84.48966 84.48966 0 0 0 84.48966-84.470339V674.101132z" fill="#E4E3FF" /><path d="M975.698113 674.101132v70.713962c0 46.563019-37.868679 84.431698-84.431698 84.431698H132.733585c-31.49283 0-59.121509-17.388679-73.612076-42.892075 12.751698 7.728302 27.821887 12.365283 44.051321 12.365283H861.70566c46.563019 0 84.431698-37.868679 84.431698-84.431698v-40.18717z" fill="#D0D0F7" /><path d="M898.395774 560.398491V165.772075c0-21.446038-17.388679-38.834717-38.834717-38.834717H164.400302c-21.446038 0-38.834717 17.388679-38.834717 38.834717v394.607095c0 21.446038 17.388679 38.834717 38.834717 38.834717h695.160755c21.446038 0 38.834717-17.388679 38.834717-38.834717z" fill="#FFFFFF" /><path d="M898.357132 466.267774v94.092075c0 21.446038-17.388679 38.834717-38.834717 38.834717H164.36166c-21.446038 0-38.834717-17.388679-38.834717-38.834717v-37.095849c125.778113 34.197736 293.675472 42.50566 473.938114 17.388679 109.548679-15.263396 210.982642-41.346415 298.892075-74.384905zM722.209811 922.759245v34.970566c0 9.080755-7.535094 16.615849-16.809056 16.615849H318.406038c-9.080755 0-16.615849-7.535094-16.615849-16.615849v-34.970566c0-9.273962 7.535094-16.615849 16.615849-16.615849h45.403773v-76.896604h296.380378v76.896604h45.210566c9.273962 0 16.809057 7.341887 16.809056 16.615849z" fill="#E4E3FF" /><path d="M363.809811 829.246792h296.380378v36.323019H363.809811z" fill="#C2C2EF" /><path d="M542.391547 751.770566c0 16.809057-13.582491 30.410868-30.410868 30.410868s-30.391547-13.601811-30.391547-30.410868c0-16.809057 13.582491-30.584755 30.391547-30.584755s30.410868 13.775698 30.410868 30.584755z" fill="#A2A2F9" /><path d="M542.333585 751.770566c0 16.809057-13.524528 30.333585-30.333585 30.333585-11.78566 0-21.832453-6.569057-26.855849-16.422642 5.023396 3.864151 11.206038 5.989434 17.968302 5.989434a30.256302 30.256302 0 0 0 26.662641-44.630943c7.728302 5.603019 12.558491 14.683774 12.558491 24.730566z" fill="#7979F7" /><path d="M436.571774 529.272755a28.981132 28.981132 0 0 1-16.074868-37.675472l110.205585-273.852377a28.981132 28.981132 0 1 1 53.76966 21.639245l-110.205585 273.813736a28.981132 28.981132 0 0 1-37.694792 16.074868zM591.485585 492.911094a28.981132 28.981132 0 0 1 4.424453-40.728151l36.284377-29.232301-36.284377-29.212982a28.981132 28.981132 0 1 1 36.323019-45.133283l64.338113 51.779623a29.019774 29.019774 0 0 1 0 45.152604l-64.338113 51.779622a28.981132 28.981132 0 0 1-40.747472-4.405132zM377.430943 364.582642l-64.338113-51.779623a29.000453 29.000453 0 0 1 0-45.191245l64.338113-51.779623a29.000453 29.000453 0 0 1 36.34234 45.171924l-36.303698 29.193661 36.323019 29.212981a29.000453 29.000453 0 0 1-36.361661 45.171925z" fill="#474646" /></svg>