<svg xmlns="http://www.w3.org/2000/svg" width="200" height="200" class="icon" viewBox="0 0 1024 1024"><path fill="#a2a2f9" d="M975.698 134.086v540.015H48.302V134.086c0-46.563 37.869-84.432 84.432-84.432h758.532c46.563 0 84.432 37.869 84.432 84.432"/><path fill="#fff" d="M86.035 538.547a14.49 14.49 0 0 1-14.49-14.49V379.961a14.49 14.49 0 0 1 28.98 0v144.094a14.49 14.49 0 0 1-14.49 14.49m0-205.515a14.49 14.49 0 0 1-14.49-14.49v-9.738a14.49 14.49 0 0 1 28.98 0v9.737a14.49 14.49 0 0 1-14.49 14.49m459.351-231.154h-7.999a14.49 14.49 0 0 1 0-28.98h8a14.49 14.49 0 0 1 0 28.98m218.209 0H606.208a14.49 14.49 0 0 1 0-28.98h157.387a14.49 14.49 0 0 1 0 28.98" opacity=".3"/><path fill="#7979f7" d="M975.698 134.086v540.015H48.302v-35.936h832.28a52.03 52.03 0 0 0 52.03-52.031V98.149c0-15.65-4.25-30.526-11.978-43.085 32.072 11.786 55.064 42.699 55.064 79.022"/><path fill="#e4e3ff" d="M48.302 674.101v70.675a84.49 84.49 0 0 0 84.49 84.47h758.397a84.49 84.49 0 0 0 84.49-84.47v-70.675z"/><path fill="#d0d0f7" d="M975.698 674.101v70.714c0 46.563-37.869 84.432-84.432 84.432H132.734c-31.493 0-59.122-17.389-73.612-42.892 12.751 7.728 27.821 12.365 44.05 12.365h758.534c46.563 0 84.431-37.869 84.431-84.432v-40.187z"/><path fill="#fff" d="M898.396 560.398V165.772c0-21.446-17.389-38.835-38.835-38.835h-695.16c-21.447 0-38.835 17.389-38.835 38.835V560.38c0 21.446 17.388 38.835 38.834 38.835h695.161c21.446 0 38.835-17.389 38.835-38.835z"/><path fill="#e4e3ff" d="M898.357 466.268v94.092c0 21.446-17.389 38.835-38.835 38.835h-695.16c-21.446 0-38.835-17.39-38.835-38.835v-37.096c125.778 34.198 293.675 42.506 473.938 17.389 109.549-15.264 210.983-41.347 298.892-74.385M722.21 922.759v34.97c0 9.082-7.535 16.617-16.81 16.617H318.407c-9.08 0-16.616-7.535-16.616-16.616v-34.97c0-9.275 7.535-16.617 16.616-16.617h45.404v-76.896h296.38v76.896h45.21c9.275 0 16.81 7.342 16.81 16.616"/><path fill="#c2c2ef" d="M363.81 829.247h296.38v36.323H363.81z"/><path fill="#a2a2f9" d="M542.392 751.77c0 16.81-13.583 30.411-30.411 30.411s-30.392-13.601-30.392-30.41c0-16.81 13.583-30.585 30.392-30.585s30.41 13.776 30.41 30.585"/><path fill="#7979f7" d="M542.334 751.77A30.26 30.26 0 0 1 512 782.105c-11.786 0-21.832-6.569-26.856-16.422 5.024 3.864 11.206 5.989 17.968 5.989a30.256 30.256 0 0 0 26.663-44.631c7.728 5.603 12.559 14.684 12.559 24.73"/><path fill="#474646" d="M436.572 529.273a28.98 28.98 0 0 1-16.075-37.676l110.205-273.852a28.981 28.981 0 1 1 53.77 21.64L474.267 513.197a28.98 28.98 0 0 1-37.695 16.075m154.914-36.362a28.98 28.98 0 0 1 4.424-40.728l36.284-29.232-36.284-29.213a28.981 28.981 0 1 1 36.323-45.134l64.338 51.78a29.02 29.02 0 0 1 0 45.153l-64.338 51.78a28.98 28.98 0 0 1-40.747-4.406M377.43 364.583l-64.338-51.78a29 29 0 0 1 0-45.191l64.338-51.78a29 29 0 0 1 36.342 45.172l-36.303 29.194 36.323 29.213a29 29 0 0 1-36.362 45.172"/></svg>