<svg xmlns="http://www.w3.org/2000/svg" width="200" height="200" class="icon" viewBox="0 0 1024 1024"><path fill="#4ab192" d="M183.38 699.56c-4.18 0-8.36-1.046-11.494-3.658-6.27-4.702-9.404-12.016-7.837-19.33l13.061-77.323c-40.228-45.976-62.171-102.922-62.171-161.96 0-144.718 131.134-262.269 293.094-262.269 76.8 0 149.42 26.645 204.8 74.71 55.38 48.588 86.726 113.894 88.294 183.38 0 5.747-2.09 10.972-6.27 14.629s-9.404 5.747-15.15 5.747c-5.225-.523-9.405-.523-13.585-.523-112.326 0-203.232 79.935-203.232 178.678 0 13.583 1.567 27.167 5.224 40.75 1.568 5.748.523 11.495-2.612 16.197s-8.36 7.836-14.106 8.881c-14.106 2.09-28.735 3.135-43.363 3.135-52.768 0-104.49-12.539-149.42-36.571l-65.83 34.481c-3.134 0-6.269 1.045-9.403 1.045"/><path fill="#4ab192" d="M268.539 352.653a35.004 35.004 0 1 0 70.008 0 35.004 35.004 0 1 0-70.008 0M476.996 352.653a35.004 35.004 0 1 0 70.008 0 35.004 35.004 0 1 0-70.008 0M849.502 849.502c-3.135 0-6.27-.522-9.404-2.09l-52.245-27.167c-37.094 19.33-78.89 29.78-122.253 29.78-134.27 0-242.939-98.22-242.939-218.384S531.853 412.735 665.6 412.735s243.461 98.22 243.461 218.383c0 48.066-17.763 95.086-50.677 133.225l10.449 61.649c1.045 7.314-1.568 15.15-7.837 19.33-3.135 3.135-7.314 4.18-11.494 4.18"/><path fill="#4ab192" d="M546.481 575.739a29.78 29.78 0 1 0 59.56 0 29.78 29.78 0 1 0-59.56 0M725.681 575.739a29.78 29.78 0 1 0 59.56 0 29.78 29.78 0 1 0-59.56 0"/></svg>